<?xml version="1.0" encoding="UTF-8"?><svg id="Zeichen" xmlns="http://www.w3.org/2000/svg" viewBox="0 0 320 320"><defs><style>.cls-1{fill:#1d1d1b;}.cls-2{fill:#3bde83;}</style></defs><polygon class="cls-2" points="186.69 174.67 131.82 229.6 158.35 229.62 213.25 174.67 186.69 174.67"/><path class="cls-2" d="m133.47,174.67l-30.18,30.13c-.49.48-.99.95-1.51,1.37-.54.45-1.11.87-1.68,1.26-.58.39-1.18.76-1.8,1.09-.61.33-1.25.64-1.9.91-.65.28-1.33.52-2,.73-.68.21-1.38.39-2.08.53-.71.15-1.44.26-2.16.33-1.48.15-3,.15-4.48,0-.72-.07-1.45-.18-2.16-.33-.7-.14-1.4-.32-2.09-.54-.67-.21-1.34-.45-1.99-.73-.65-.27-1.29-.58-1.91-.92-.61-.33-1.21-.7-1.79-1.09-.58-.39-1.15-.82-1.68-1.26-.54-.44-1.06-.92-1.55-1.41s-.97-1.02-1.41-1.55c-.44-.54-.87-1.1-1.26-1.68-.39-.58-.76-1.18-1.09-1.8-.33-.61-.64-1.25-.91-1.9-.28-.65-.52-1.32-.73-2-.21-.68-.39-1.38-.53-2.08-.15-.71-.26-1.44-.33-2.16-.08-.74-.11-1.49-.11-2.24s.04-1.5.11-2.24c.07-.72.18-1.45.33-2.16.14-.7.32-1.4.53-2.08.21-.67.46-1.35.73-1.99.27-.65.58-1.29.92-1.9.33-.61.7-1.22,1.09-1.79.39-.58.82-1.15,1.26-1.68.45-.54.92-1.06,1.41-1.56.49-.49,1.01-.96,1.55-1.41.53-.44,1.1-.86,1.68-1.26.58-.39,1.18-.76,1.8-1.09.62-.33,1.25-.64,1.9-.92.65-.27,1.32-.52,1.99-.73.69-.21,1.39-.39,2.09-.54.71-.15,1.44-.26,2.16-.33,1.23-.12,3.74-.1,3.74-.1h15.37l18.85-18.84h-35.15c-1.58-.02-3.16.02-4.71.18-1.35.14-2.71.34-4.04.62-1.31.27-2.62.6-3.9,1-1.26.39-2.52.85-3.74,1.37-1.21.51-2.41,1.09-3.56,1.71-1.15.62-2.27,1.31-3.35,2.04-1.08.73-2.13,1.52-3.13,2.34-1,.83-1.97,1.71-2.88,2.62-.91.91-1.79,1.88-2.62,2.89-.82,1-1.61,2.05-2.34,3.13-.73,1.08-1.41,2.21-2.03,3.35-.63,1.15-1.2,2.35-1.72,3.56-.52,1.22-.98,2.48-1.37,3.74-.4,1.28-.74,2.59-1,3.9-.27,1.33-.48,2.68-.62,4.04-.14,1.37-.21,2.76-.21,4.14s.07,2.78.21,4.14c.14,1.35.34,2.71.62,4.04.27,1.31.61,2.63,1,3.9.39,1.26.85,2.52,1.37,3.74.51,1.21,1.09,2.4,1.71,3.56.62,1.14,1.31,2.27,2.04,3.35.73,1.07,1.51,2.12,2.34,3.12.82,1,1.7,1.97,2.62,2.88s1.89,1.8,2.88,2.62c1,.82,2.05,1.61,3.13,2.34,1.08.73,2.21,1.42,3.35,2.03,1.15.63,2.35,1.2,3.56,1.72,1.23.52,2.48.98,3.74,1.37,1.28.4,2.59.74,3.9,1,1.33.27,2.69.48,4.04.62,1.37.14,2.76.21,4.14.21s2.78-.07,4.15-.21c1.35-.14,2.71-.34,4.04-.62,1.31-.27,2.63-.61,3.9-1,1.26-.39,2.52-.85,3.75-1.37,1.21-.51,2.4-1.09,3.55-1.71,1.14-.62,2.27-1.31,3.36-2.04,1.07-.72,2.12-1.51,3.12-2.34.84-.69,2.44-2.18,2.44-2.18l.36-.36s43.47-43.5,43.47-43.5h-26.58Z"/><path class="cls-1" d="m249.55,144.64c-3.18-18.62-18.19-32.48-36.18-33.2-11.22-13.16-30.26-21.44-50.07-21.44-17.78,0-34.41,7.65-45.98,21.04l-19.51,19.54h26.79s3.57-5.34,5.58-7.11c2.41-2.9,7.29-6.25,7.29-6.25,7.66-5.55,17.13-8.27,25.87-8.45,15.51-.18,28.48,6.46,37.54,17.39,1.1,1.23,3.22,4.47,3.22,4.47,0,0,3.1-1.09,7.38-.91,10.3.5,19.22,8.79,20.07,19.47.29,3.72-.75,7.88-.75,7.88l6.54,2.45c10,3.75,16.71,13.8,16.71,25.01,0,14.52-11.9,26.24-26.52,26.24h-23.69l-18.85,18.84,42.54-.08c24.92,0,45.19-20.19,45.19-45,0-16.79-9.1-32.12-23.18-39.89Z"/></svg>