<?xml version="1.0" encoding="UTF-8"?>
<svg id="Ebene_1" data-name="Ebene 1" xmlns="http://www.w3.org/2000/svg" width="1920" height="1080" viewBox="0 0 1920 1080">
  <defs>
    <style>
      .cls-1 {
        fill: #3bde82;
      }
    </style>
  </defs>
  <polygon class="cls-1" points="1161.72 766.5 849.17 1079.05 989.83 1079.05 1302.38 766.5 1161.72 766.5"/>
  <polygon class="cls-1" points="1442.91 766.5 1130.36 1079.05 1271.03 1079.05 1583.57 766.5 1442.91 766.5"/>
  <polygon class="cls-1" points="1755.38 454 1614.71 454 1302.17 766.55 1442.83 766.55 1755.38 454"/>
  <polygon class="cls-1" points="2126.18 363.54 1985.52 363.54 1672.97 676.09 1813.63 676.09 2126.18 363.54"/>
  <polygon class="cls-1" points="2052.13 -2.41 1739.59 310.13 1880.25 310.13 2192.79 -2.41 2192.79 -2.41 2052.13 -2.41"/>
  <polygon class="cls-1" points="1821.33 766.5 1508.79 1079.05 1649.45 1079.05 1962 766.5 1821.33 766.5"/>
  <polygon class="cls-1" points="1327.28 452.8 1467.95 452.8 1780.49 140.25 1639.83 140.25 1327.28 452.8"/>
</svg>