<?xml version="1.0" encoding="utf-8"?>
<!-- Generator: Adobe Illustrator 27.4.0, SVG Export Plug-In . SVG Version: 6.00 Build 0)  -->
<svg version="1.1" id="Ebene_1" xmlns="http://www.w3.org/2000/svg" xmlns:xlink="http://www.w3.org/1999/xlink" x="0px" y="0px"
	 viewBox="0 0 320 100" style="enable-background:new 0 0 320 100;" xml:space="preserve">
<style type="text/css">
	.st0{fill:#3BDE83;}
	.st1{fill:#1D1D1B;}
</style>
<g>
	<g>
		<polygon class="st0" points="67.15,54.61 46.14,75.64 56.3,75.64 77.32,54.61 		"/>
		<path class="st0" d="M46.77,54.61L35.22,66.14c-0.19,0.18-0.38,0.36-0.58,0.53C34.44,66.84,34.22,67,34,67.15
			c-0.22,0.15-0.45,0.29-0.69,0.42c-0.24,0.13-0.48,0.25-0.73,0.35c-0.25,0.11-0.51,0.2-0.77,0.28c-0.26,0.08-0.53,0.15-0.8,0.2
			c-0.27,0.06-0.55,0.1-0.83,0.13c-0.56,0.06-1.15,0.06-1.71,0c-0.28-0.03-0.56-0.07-0.83-0.13c-0.27-0.05-0.54-0.12-0.8-0.21
			c-0.26-0.08-0.51-0.17-0.76-0.28c-0.25-0.1-0.49-0.22-0.73-0.35c-0.23-0.13-0.46-0.27-0.69-0.42c-0.22-0.15-0.44-0.31-0.64-0.48
			c-0.2-0.17-0.4-0.35-0.59-0.54c-0.19-0.19-0.37-0.39-0.54-0.59c-0.17-0.21-0.33-0.42-0.48-0.64c-0.15-0.22-0.29-0.45-0.42-0.69
			c-0.13-0.24-0.25-0.48-0.35-0.73c-0.11-0.25-0.2-0.51-0.28-0.77c-0.08-0.26-0.15-0.53-0.2-0.8c-0.06-0.27-0.1-0.55-0.13-0.83
			C21.01,60.8,21,60.51,21,60.23c0-0.29,0.01-0.57,0.04-0.86c0.03-0.28,0.07-0.56,0.13-0.83c0.05-0.27,0.12-0.54,0.2-0.8
			c0.08-0.26,0.17-0.52,0.28-0.76c0.1-0.25,0.22-0.49,0.35-0.73c0.13-0.23,0.27-0.47,0.42-0.69c0.15-0.22,0.31-0.44,0.48-0.64
			c0.17-0.21,0.35-0.41,0.54-0.6c0.19-0.19,0.39-0.37,0.59-0.54c0.2-0.17,0.42-0.33,0.64-0.48c0.22-0.15,0.45-0.29,0.69-0.42
			c0.24-0.13,0.48-0.25,0.73-0.35c0.25-0.11,0.51-0.2,0.76-0.28c0.26-0.08,0.53-0.15,0.8-0.21c0.27-0.06,0.55-0.1,0.83-0.13
			c0.47-0.05,1.43-0.04,1.43-0.04h5.88l7.22-7.21H29.55l0,0c-0.6-0.01-1.21,0.01-1.8,0.07c-0.52,0.05-1.04,0.13-1.55,0.24
			c-0.5,0.1-1,0.23-1.49,0.38c-0.48,0.15-0.97,0.33-1.43,0.52c-0.46,0.2-0.92,0.42-1.36,0.66c-0.44,0.24-0.87,0.5-1.28,0.78
			c-0.41,0.28-0.82,0.58-1.2,0.9c-0.38,0.32-0.75,0.65-1.1,1c-0.35,0.35-0.69,0.72-1,1.1c-0.32,0.38-0.62,0.78-0.9,1.2
			c-0.28,0.41-0.54,0.84-0.78,1.28c-0.24,0.44-0.46,0.9-0.66,1.36c-0.2,0.47-0.37,0.95-0.52,1.43c-0.15,0.49-0.28,0.99-0.38,1.49
			c-0.1,0.51-0.18,1.03-0.24,1.55c-0.05,0.52-0.08,1.06-0.08,1.59c0,0.53,0.03,1.06,0.08,1.59c0.05,0.52,0.13,1.04,0.24,1.55
			c0.1,0.5,0.23,1.01,0.38,1.49c0.15,0.48,0.33,0.96,0.52,1.43c0.2,0.46,0.42,0.92,0.66,1.36c0.24,0.44,0.5,0.87,0.78,1.28
			c0.28,0.41,0.58,0.81,0.89,1.2c0.32,0.38,0.65,0.75,1,1.1s0.72,0.69,1.1,1c0.38,0.32,0.78,0.62,1.2,0.9
			c0.42,0.28,0.85,0.54,1.28,0.78c0.44,0.24,0.9,0.46,1.36,0.66c0.47,0.2,0.95,0.37,1.43,0.52c0.49,0.15,0.99,0.28,1.49,0.38
			c0.51,0.1,1.03,0.18,1.55,0.24c0.52,0.05,1.06,0.08,1.59,0.08s1.06-0.03,1.59-0.08c0.52-0.05,1.04-0.13,1.54-0.24
			c0.5-0.1,1.01-0.23,1.49-0.38c0.48-0.15,0.96-0.33,1.43-0.52c0.46-0.2,0.92-0.42,1.36-0.66c0.44-0.24,0.87-0.5,1.28-0.78
			c0.41-0.28,0.81-0.58,1.2-0.89c0.32-0.26,0.94-0.84,0.94-0.84l0.14-0.14c0.01-0.01,16.64-16.65,16.64-16.65H46.77z"/>
		<path class="st1" d="M91.21,43.11c-1.22-7.13-6.96-12.43-13.85-12.71c-4.29-5.04-11.59-8.21-19.17-8.21
			c-6.8,0-13.17,2.93-17.6,8.06l-7.47,7.48l10.25,0c0,0,1.37-2.04,2.14-2.72c0.92-1.11,2.79-2.39,2.79-2.39
			c2.93-2.13,6.56-3.17,9.9-3.24c5.94-0.07,10.9,2.47,14.37,6.66c0.42,0.47,1.23,1.71,1.23,1.71s1.19-0.42,2.82-0.35
			c3.94,0.19,7.36,3.36,7.68,7.45c0.11,1.42-0.29,3.02-0.29,3.02l2.5,0.94c3.83,1.44,6.4,5.28,6.4,9.57
			c0,5.56-4.56,10.05-10.15,10.05h-9.07l-7.22,7.21l16.29-0.03c9.54,0,17.3-7.73,17.3-17.23C100.09,51.95,96.6,46.08,91.21,43.11z"
			/>
	</g>
	<rect x="138.12" y="44.6" class="st1" width="6.58" height="30.49"/>
	<path class="st1" d="M159.52,51.22c-7.33,0-12.86,5.25-12.86,12.21c0,6.99,5.53,12.26,12.86,12.26c7.21,0,12.86-5.38,12.86-12.26
		C172.38,56.58,166.73,51.22,159.52,51.22z M165.75,63.43c0,3.58-2.74,6.38-6.24,6.38c-3.5,0-6.24-2.8-6.24-6.38
		c0-3.55,2.74-6.33,6.24-6.33C163.01,57.1,165.75,59.88,165.75,63.43z"/>
	<path class="st1" d="M215.9,44.6l0.02,9.39c-1.89-1.76-4.41-2.72-7.16-2.72c-6.65,0-11.86,5.37-11.86,12.23
		c0,6.83,5.21,12.18,11.86,12.18c2.79,0,5.39-1,7.39-2.82l0,2.23h6.43l0-30.49H215.9z M209.83,69.96c-3.49,0-6.22-2.84-6.22-6.46
		c0-3.65,2.73-6.5,6.22-6.5c3.52,0,6.27,2.86,6.27,6.5C216.1,67.12,213.35,69.96,209.83,69.96z"/>
	<path class="st1" d="M185.92,75.68c5.16,0,8.91-3.77,8.91-8.95l0-15.51h-6.54l0,14.22c0,5.47-7.45,6.14-7.45,0l0-14.22h-6.54
		l0,15.51c0,5.19,3.75,8.95,8.91,8.95H185.92z"/>
	<g>
		<polygon class="st0" points="260.83,44.14 255.95,49.03 262.58,49.03 267.45,44.14 		"/>
	</g>
	<path class="st1" d="M135.23,70.52c0,0-0.77,0.84-1.73,1.63c-0.38,0.32-0.79,0.62-1.2,0.89c-0.42,0.28-0.85,0.54-1.28,0.78
		c-0.44,0.24-0.9,0.46-1.36,0.66c-0.47,0.2-0.95,0.38-1.43,0.52c-0.49,0.15-0.99,0.28-1.49,0.38c-0.51,0.1-1.03,0.18-1.54,0.24
		c-0.52,0.05-1.06,0.08-1.59,0.08s-1.06-0.03-1.59-0.08c-0.52-0.05-1.04-0.13-1.55-0.24c-0.5-0.1-1.01-0.23-1.49-0.38
		c-0.48-0.15-0.96-0.33-1.43-0.52c-0.46-0.2-0.92-0.42-1.36-0.66c-0.43-0.24-0.87-0.5-1.28-0.78c-0.41-0.28-0.82-0.58-1.2-0.9
		c-0.38-0.31-0.75-0.65-1.1-1s-0.69-0.72-1-1.1c-0.32-0.38-0.62-0.78-0.89-1.2c-0.28-0.41-0.54-0.85-0.78-1.28
		c-0.24-0.44-0.46-0.9-0.66-1.36c-0.2-0.47-0.37-0.95-0.52-1.43c-0.15-0.49-0.28-0.99-0.38-1.49c-0.1-0.51-0.18-1.03-0.24-1.55
		c-0.05-0.52-0.08-1.06-0.08-1.59c0-0.53,0.03-1.06,0.08-1.59c0.05-0.52,0.13-1.04,0.24-1.55c0.1-0.5,0.23-1.01,0.38-1.49
		c0.15-0.48,0.33-0.96,0.52-1.43c0.2-0.46,0.42-0.92,0.66-1.36c0.24-0.44,0.5-0.87,0.78-1.28c0.28-0.41,0.58-0.82,0.9-1.2
		c0.32-0.38,0.65-0.76,1-1.1c0.35-0.35,0.72-0.69,1.1-1c0.38-0.32,0.78-0.62,1.2-0.9c0.41-0.28,0.84-0.54,1.28-0.78
		c0.44-0.24,0.9-0.46,1.36-0.66c0.46-0.2,0.95-0.37,1.43-0.52c0.49-0.15,0.99-0.28,1.49-0.38c0.51-0.1,1.03-0.18,1.55-0.24
		c0.59-0.06,1.2-0.08,1.8-0.07l0,0h13.46l-7.22,7.21h-5.88c0,0-0.96-0.01-1.43,0.04c-0.28,0.03-0.56,0.07-0.83,0.13
		c-0.27,0.05-0.54,0.12-0.8,0.21c-0.26,0.08-0.51,0.17-0.76,0.28c-0.25,0.1-0.49,0.22-0.73,0.35c-0.24,0.13-0.47,0.27-0.69,0.42
		c-0.22,0.15-0.44,0.31-0.64,0.48c-0.21,0.17-0.41,0.35-0.59,0.54c-0.19,0.19-0.37,0.39-0.54,0.6c-0.17,0.2-0.33,0.42-0.48,0.64
		c-0.15,0.22-0.29,0.45-0.42,0.69c-0.13,0.24-0.25,0.48-0.35,0.73c-0.1,0.25-0.2,0.51-0.28,0.76c-0.08,0.26-0.15,0.53-0.2,0.8
		c-0.06,0.27-0.1,0.55-0.13,0.83c-0.03,0.28-0.04,0.57-0.04,0.86c0,0.29,0.01,0.57,0.04,0.86c0.03,0.28,0.07,0.56,0.13,0.83
		c0.05,0.27,0.12,0.54,0.2,0.8c0.08,0.26,0.17,0.52,0.28,0.77c0.1,0.25,0.22,0.49,0.35,0.73c0.13,0.24,0.27,0.47,0.42,0.69
		c0.15,0.22,0.31,0.44,0.48,0.64c0.17,0.2,0.35,0.4,0.54,0.59c0.19,0.19,0.39,0.37,0.59,0.54c0.21,0.17,0.42,0.33,0.64,0.48
		c0.22,0.15,0.45,0.29,0.69,0.42c0.24,0.13,0.48,0.25,0.73,0.35c0.25,0.11,0.51,0.2,0.76,0.28c0.26,0.08,0.53,0.15,0.8,0.21
		c0.27,0.06,0.55,0.1,0.83,0.13c0.57,0.06,1.15,0.06,1.71,0c0.28-0.03,0.56-0.07,0.83-0.13c0.27-0.05,0.54-0.12,0.8-0.2
		c0.26-0.08,0.52-0.17,0.77-0.28c0.25-0.1,0.49-0.22,0.73-0.35c0.24-0.13,0.47-0.27,0.69-0.42c0.22-0.15,0.44-0.31,0.64-0.48
		c0.2-0.16,1.25-1.13,1.25-1.13L135.23,70.52z"/>
	<path class="st1" d="M280.15,64.39c-0.82-1.05-1.81-1.8-2.99-2.26c-1.17-0.45-2.35-0.82-3.52-1.12c-1.17-0.3-2.17-0.64-2.99-1.03
		c-0.82-0.39-1.23-0.89-1.23-1.51c0-0.59,0.26-1.05,0.77-1.39c0.51-0.34,1.15-0.51,1.93-0.51c1.73,0,2.97,0.8,3.7,2.37l0.07-0.04
		l4.1-4.1c-0.75-0.93-1.66-1.69-2.72-2.28c-1.54-0.85-3.26-1.28-5.14-1.29c-2.5-0.01-4.6,0.65-6.29,1.96
		c-1.69,1.31-2.53,3.11-2.54,5.4c0,1.52,0.4,2.78,1.22,3.78c0.82,1.01,1.81,1.74,2.99,2.21c1.17,0.47,2.35,0.86,3.52,1.17
		c1.17,0.31,2.17,0.66,2.99,1.05c0.82,0.39,1.23,0.89,1.23,1.51c0,1.33-1.07,1.99-3.2,1.99c-2.34-0.01-3.85-1.01-4.53-3l-4.36,4.37
		c1.85,2.7,4.81,4.05,8.88,4.06c2.66,0.01,4.88-0.63,6.66-1.91c1.78-1.28,2.67-3.11,2.68-5.49
		C281.37,66.75,280.96,65.44,280.15,64.39z"/>
	<path class="st1" d="M302.18,65.41l-2.1,2.1l-0.06,0.07c-0.02,0.02-0.04,0.05-0.07,0.07c-2.32,2.36-4.87,2.91-7.38,1.61l12-12.18
		l0.09-0.09l-0.08-0.11c-0.51-0.71-1.04-1.35-1.59-1.89c-2.46-2.42-5.34-3.69-8.56-3.77c-3.22-0.07-6.07,1.12-8.45,3.53
		c-2.51,2.55-3.76,5.5-3.7,8.76c0.06,3.26,1.35,6.16,3.83,8.6c2.48,2.44,5.38,3.68,8.62,3.68c0.03,0,0.06,0,0.09,0
		c3.63-0.03,6.13-1.07,8.62-3.6c0.19-0.19,2.66-2.66,2.66-2.66l0.11-0.11L302.18,65.41z M293.27,57c1.31-0.22,2.49,0.06,3.8,0.89
		l-8.06,8c-0.71-1.18-1-2.39-0.86-3.6c0.15-1.27,0.77-2.47,1.86-3.57C290.93,57.79,292.03,57.21,293.27,57z"/>
	<path class="st1" d="M254.45,75.09V51.82h6.63v23.27H254.45z"/>
	<path class="st1" d="M244.13,65.98l3.2-3.21h0c0.19-0.2,0.38-0.41,0.55-0.62c1.58-1.87,2.51-4.25,2.51-6.75
		c0-5.96-4.85-10.81-10.81-10.81h-13.27l0,30.49h6.63l0-9.1V59.9v-8.98h6.64c2.34,0,4.18,1.97,4.18,4.49c0,1.16-0.45,2.2-1.09,3.02
		c-0.69,0.89-7.06,7.12-7.06,7.12l2.02,2.01l-0.1,0.1h0.19l7.4,7.37l0.06,0.06h8.09L244.13,65.98z"/>
</g>
</svg>
